<?xml version="1.0" encoding="UTF-8" standalone="no"?><svg xmlns="http://www.w3.org/2000/svg" xmlns:xlink="http://www.w3.org/1999/xlink" contentScriptType="application/ecmascript" contentStyleType="text/css" height="285px" preserveAspectRatio="none" style="width:143px;height:285px;" version="1.1" viewBox="0 0 143 285" width="143px" zoomAndPan="magnify"><defs><filter height="300%" id="f1gmas9pkcc4sp" width="300%" x="-1" y="-1"><feGaussianBlur result="blurOut" stdDeviation="2.0"/><feColorMatrix in="blurOut" result="blurOut2" type="matrix" values="0 0 0 0 0 0 0 0 0 0 0 0 0 0 0 0 0 0 .4 0"/><feOffset dx="4.0" dy="4.0" in="blurOut2" result="blurOut3"/><feBlend in="SourceGraphic" in2="blurOut3" mode="normal"/></filter></defs><g><!--class Executive--><rect fill="#FEFECE" filter="url(#f1gmas9pkcc4sp)" height="103.3438" id="Executive" style="stroke: #A80036; stroke-width: 1.5;" width="126" x="6" y="8"/><ellipse cx="40.35" cy="24" fill="#ADD1B2" rx="11" ry="11" style="stroke: #A80036; stroke-width: 1.0;"/><path d="M43.1156,19.875 Q43.2719,19.6563 43.4594,19.5469 Q43.6469,19.4375 43.8656,19.4375 Q44.2406,19.4375 44.475,19.7031 Q44.7094,19.9531 44.7094,20.5625 L44.7094,22.0156 Q44.7094,22.625 44.475,22.8906 Q44.2406,23.1563 43.8656,23.1563 Q43.5219,23.1563 43.3188,22.9531 Q43.1156,22.7656 43.0063,22.25 Q42.9594,21.8906 42.7719,21.7031 Q42.4438,21.3281 41.8344,21.1094 Q41.225,20.8906 40.6,20.8906 Q39.8344,20.8906 39.1938,21.2188 Q38.5688,21.5469 38.0688,22.2969 Q37.5844,23.0469 37.5844,24.0781 L37.5844,25.1719 Q37.5844,26.4063 38.475,27.2344 Q39.3656,28.0469 40.9594,28.0469 Q41.8969,28.0469 42.5531,27.7969 Q42.9438,27.6406 43.3656,27.2031 Q43.6313,26.9375 43.7719,26.8594 Q43.9281,26.7813 44.1313,26.7813 Q44.4594,26.7813 44.7094,27.0469 Q44.975,27.2969 44.975,27.6406 Q44.975,27.9844 44.6313,28.3906 Q44.1313,28.9688 43.3344,29.2969 Q42.2563,29.75 40.9594,29.75 Q39.4438,29.75 38.2406,29.125 Q37.2563,28.625 36.5688,27.5625 Q35.8813,26.4844 35.8813,25.2031 L35.8813,24.0469 Q35.8813,22.7188 36.4906,21.5781 Q37.1156,20.4219 38.2094,19.8125 Q39.3031,19.1875 40.5375,19.1875 Q41.2719,19.1875 41.9125,19.3594 Q42.5688,19.5156 43.1156,19.875 Z "/><text fill="#000000" font-family="sans-serif" font-size="12" lengthAdjust="spacingAndGlyphs" textLength="51" x="58.65" y="28.9102">Executive</text><line style="stroke: #A80036; stroke-width: 1.5;" x1="7" x2="131" y1="40" y2="40"/><ellipse cx="17" cy="51" fill="none" rx="3" ry="3" style="stroke: #038048; stroke-width: 1.0;"/><text fill="#000000" font-family="sans-serif" font-size="11" lengthAdjust="spacingAndGlyphs" textLength="26" x="26" y="55.4189">name</text><ellipse cx="17" cy="64.8359" fill="none" rx="3" ry="3" style="stroke: #038048; stroke-width: 1.0;"/><text fill="#000000" font-family="sans-serif" font-size="11" lengthAdjust="spacingAndGlyphs" textLength="24" x="26" y="69.2549">email</text><line style="stroke: #A80036; stroke-width: 1.5;" x1="7" x2="131" y1="75.6719" y2="75.6719"/><ellipse cx="17" cy="86.6719" fill="#84BE84" rx="3" ry="3" style="stroke: #038048; stroke-width: 1.0;"/><text fill="#000000" font-family="sans-serif" font-size="11" lengthAdjust="spacingAndGlyphs" textLength="100" x="26" y="91.0908">requestAssistance()</text><ellipse cx="17" cy="100.5078" fill="#84BE84" rx="3" ry="3" style="stroke: #038048; stroke-width: 1.0;"/><text fill="#000000" font-family="sans-serif" font-size="11" lengthAdjust="spacingAndGlyphs" textLength="80" x="26" y="104.9268">cancelRequest()</text><!--class PA--><rect fill="#FEFECE" filter="url(#f1gmas9pkcc4sp)" height="103.3438" id="PA" style="stroke: #A80036; stroke-width: 1.5;" width="108" x="15" y="171"/><ellipse cx="57.45" cy="187" fill="#ADD1B2" rx="11" ry="11" style="stroke: #A80036; stroke-width: 1.0;"/><path d="M60.2156,182.875 Q60.3719,182.6563 60.5594,182.5469 Q60.7469,182.4375 60.9656,182.4375 Q61.3406,182.4375 61.575,182.7031 Q61.8094,182.9531 61.8094,183.5625 L61.8094,185.0156 Q61.8094,185.625 61.575,185.8906 Q61.3406,186.1563 60.9656,186.1563 Q60.6219,186.1563 60.4188,185.9531 Q60.2156,185.7656 60.1063,185.25 Q60.0594,184.8906 59.8719,184.7031 Q59.5438,184.3281 58.9344,184.1094 Q58.325,183.8906 57.7,183.8906 Q56.9344,183.8906 56.2938,184.2188 Q55.6688,184.5469 55.1688,185.2969 Q54.6844,186.0469 54.6844,187.0781 L54.6844,188.1719 Q54.6844,189.4063 55.575,190.2344 Q56.4656,191.0469 58.0594,191.0469 Q58.9969,191.0469 59.6531,190.7969 Q60.0438,190.6406 60.4656,190.2031 Q60.7313,189.9375 60.8719,189.8594 Q61.0281,189.7813 61.2313,189.7813 Q61.5594,189.7813 61.8094,190.0469 Q62.075,190.2969 62.075,190.6406 Q62.075,190.9844 61.7313,191.3906 Q61.2313,191.9688 60.4344,192.2969 Q59.3563,192.75 58.0594,192.75 Q56.5438,192.75 55.3406,192.125 Q54.3563,191.625 53.6688,190.5625 Q52.9813,189.4844 52.9813,188.2031 L52.9813,187.0469 Q52.9813,185.7188 53.5906,184.5781 Q54.2156,183.4219 55.3094,182.8125 Q56.4031,182.1875 57.6375,182.1875 Q58.3719,182.1875 59.0125,182.3594 Q59.6688,182.5156 60.2156,182.875 Z "/><text fill="#000000" font-family="sans-serif" font-size="12" lengthAdjust="spacingAndGlyphs" textLength="15" x="77.55" y="191.9102">PA</text><line style="stroke: #A80036; stroke-width: 1.5;" x1="16" x2="122" y1="203" y2="203"/><ellipse cx="26" cy="214" fill="none" rx="3" ry="3" style="stroke: #038048; stroke-width: 1.0;"/><text fill="#000000" font-family="sans-serif" font-size="11" lengthAdjust="spacingAndGlyphs" textLength="26" x="35" y="218.4189">name</text><ellipse cx="26" cy="227.8359" fill="none" rx="3" ry="3" style="stroke: #038048; stroke-width: 1.0;"/><text fill="#000000" font-family="sans-serif" font-size="11" lengthAdjust="spacingAndGlyphs" textLength="24" x="35" y="232.2549">email</text><line style="stroke: #A80036; stroke-width: 1.5;" x1="16" x2="122" y1="238.6719" y2="238.6719"/><ellipse cx="26" cy="249.6719" fill="#84BE84" rx="3" ry="3" style="stroke: #038048; stroke-width: 1.0;"/><text fill="#000000" font-family="sans-serif" font-size="11" lengthAdjust="spacingAndGlyphs" textLength="81" x="35" y="254.0908">acceptRequest()</text><ellipse cx="26" cy="263.5078" fill="#84BE84" rx="3" ry="3" style="stroke: #038048; stroke-width: 1.0;"/><text fill="#000000" font-family="sans-serif" font-size="11" lengthAdjust="spacingAndGlyphs" textLength="82" x="35" y="267.9268">declineRequest()</text><!--link Executive to PA--><path d="M69,111.441 C69,130.419 69,151.942 69,170.89 " fill="none" id="Executive-PA" style="stroke: #A80036; stroke-width: 1.0;"/><!--
@startuml

class Executive {
 +name
 +email
 +requestAssistance()
 +cancelRequest()
}

class PA {
 +name
 +email
 +acceptRequest()
 +declineRequest()
}

Executive - - PA

@enduml

PlantUML version 1.2019.09(Mon Aug 26 18:19:51 CAT 2019)
(GPL source distribution)
Java Runtime: OpenJDK Runtime Environment
JVM: OpenJDK 64-Bit Server VM
Java Version: 11.0.5+10-LTS
Operating System: Windows 10
OS Version: 10.0
Default Encoding: Cp1252
Language: en
Country: ZA
--></g></svg>